<svg viewBox="0 0 437 511" fill="none" xmlns="http://www.w3.org/2000/svg">
    <path d="M85.4093 254.57C190.089 122.951 405.115 -12.4657 421.943 0.917096C434.797 11.1408 405.727 112.049 344.616 217.801C394.443 202.886 431.592 196.673 435.719 202.609C442.932 212.985 400.918 278.98 334.197 343.573C369.088 342.813 393.372 345.341 395.179 350.18C399.938 362.927 315.045 436.506 215.335 473.733C144.662 500.118 79.3217 514.402 43.6211 509.248C36.6211 508.237 29.2265 505.038 24.1916 501.033C-11.9011 472.328 -19.2699 386.19 85.4093 254.57Z"
          fill="#EC6C52"/>
    <path d="M107.349 312.682C165.382 239.946 284.589 165.111 293.918 172.507C301.044 178.157 284.928 233.921 251.049 292.362C278.672 284.12 299.267 280.687 301.555 283.967C305.554 289.701 282.262 326.172 245.273 361.868C264.616 361.448 278.079 362.845 279.08 365.518C281.719 372.563 234.655 413.225 179.378 433.797C140.198 448.378 103.975 456.272 84.1828 453.424C80.3021 452.865 76.2027 451.097 73.4114 448.884C53.4022 433.021 49.3171 385.418 107.349 312.682Z"
          fill="#ECCD52"/>
</svg>
